<svg width="196" height="16" fill="none" xmlns="http://www.w3.org/2000/svg"><path fill-rule="evenodd" clip-rule="evenodd" d="M88.331 1.23l1.78 4.42 4.56.411c.316.029.445.442.205.66l-3.458 3.142 1.036 4.674c.072.324-.264.58-.535.407L88 12.467l-3.918 2.477c-.272.172-.607-.083-.535-.407l1.036-4.674-3.459-3.142c-.24-.218-.112-.632.205-.66l4.56-.411 1.78-4.42a.353.353 0 01.662 0zM8.331 1.23l1.78 4.42 4.56.411c.316.029.445.442.205.66l-3.458 3.142 1.036 4.674c.072.324-.264.58-.536.407L8 12.467l-3.918 2.477c-.272.172-.607-.083-.535-.407l1.036-4.674-3.458-3.142c-.24-.218-.113-.632.204-.66l4.56-.411 1.78-4.42a.353.353 0 01.662 0zM28.331 1.23l1.78 4.42 4.56.411c.316.029.445.442.205.66l-3.458 3.142 1.036 4.674c.072.324-.264.58-.535.407L28 12.467l-3.918 2.477c-.272.172-.607-.083-.535-.407l1.036-4.674-3.458-3.142c-.24-.218-.113-.632.204-.66l4.56-.411 1.78-4.42a.353.353 0 01.662 0zM48.331 1.23l1.78 4.42 4.56.411c.316.029.445.442.205.66l-3.458 3.142 1.036 4.674c.072.324-.264.58-.535.407L48 12.467l-3.918 2.477c-.272.172-.607-.083-.535-.407l1.036-4.674-3.459-3.142c-.24-.218-.112-.632.205-.66l4.56-.411 1.78-4.42a.353.353 0 01.662 0zM68.331 1.23l1.78 4.42 4.56.411c.316.029.445.442.205.66l-3.458 3.142 1.036 4.674c.072.324-.264.58-.535.407L68 12.467l-3.918 2.477c-.272.172-.607-.083-.535-.407l1.036-4.674-3.459-3.142c-.24-.218-.112-.632.205-.66l4.56-.411 1.78-4.42a.353.353 0 01.662 0z" fill="#CB11AB" stroke="#CB11AB"/><path clip-rule="evenodd" d="M188.331 1.23l1.781 4.42 4.559.411c.316.029.445.442.205.66l-3.458 3.142 1.036 4.674c.072.324-.264.58-.536.407L188 12.467l-3.918 2.477c-.272.172-.607-.083-.535-.407l1.036-4.674-3.458-3.142c-.24-.218-.113-.632.204-.66l4.559-.411 1.781-4.42a.353.353 0 01.662 0zM108.331 1.23l1.781 4.42 4.559.411c.316.029.445.442.205.66l-3.458 3.142 1.036 4.674c.072.324-.264.58-.536.407L108 12.467l-3.918 2.477c-.272.172-.607-.083-.535-.407l1.036-4.674-3.458-3.142c-.24-.218-.113-.632.204-.66l4.559-.411 1.781-4.42a.353.353 0 01.662 0zM128.331 1.23l1.781 4.42 4.559.411c.316.029.445.442.205.66l-3.458 3.142 1.036 4.674c.072.324-.264.58-.536.407L128 12.467l-3.918 2.477c-.272.172-.607-.083-.535-.407l1.036-4.674-3.458-3.142c-.24-.218-.113-.632.204-.66l4.559-.411 1.781-4.42a.353.353 0 01.662 0zM148.331 1.23l1.781 4.42 4.559.411c.316.029.445.442.205.66l-3.458 3.142 1.036 4.674c.072.324-.264.58-.536.407L148 12.467l-3.918 2.477c-.272.172-.607-.083-.535-.407l1.036-4.674-3.458-3.142c-.24-.218-.113-.632.204-.66l4.559-.411 1.781-4.42a.353.353 0 01.662 0zM168.331 1.23l1.781 4.42 4.559.411c.316.029.445.442.205.66l-3.458 3.142 1.036 4.674c.072.324-.264.58-.536.407L168 12.467l-3.918 2.477c-.272.172-.607-.083-.535-.407l1.036-4.674-3.458-3.142c-.24-.218-.113-.632.204-.66l4.559-.411 1.781-4.42a.353.353 0 01.662 0z" stroke="#CB11AB"/></svg>